#!OML:ASF H:\Terrain\Patient Classification 1\Walking\liu\liu.ASF
:FULLY-SPECIFIED
:DEGREES
259
root 14.565569 25.077301 -0.423395 12.377655 -11.311110 1.561680
lowerback -8.500305 1.729020 -3.606705
upperback -2.928420 2.463630 2.202300
thorax 1.581525 1.243681 4.448700
lowerneck -30.642750 -7.203225 -19.247551
upperneck 28.069500 -8.685210 19.844099
head 15.179850 -3.193320 9.030240
rclavicle -0.000000 -0.000000
rhumerus -68.955154 14.507160 -129.024002
rradius 59.566948
rwrist -32.622902
rhand -47.896351 -36.900452
rfingers 10.687531
rthumb -7.773015 -81.775345
lclavicle -0.000000 -0.000000
lhumerus -55.054497 -12.886381 133.941437
lradius 33.958649
lwrist -3.011265
lhand -14.126595 -33.517799
lfingers 10.687531
lthumb 24.816450 10.454220
rfemur -12.085725 -2.747775 23.894100
rtibia 91.723053
rfoot 8.176785 -13.447454
rtoes -22.851749
lfemur -47.596199 13.563391 -41.130302
ltibia 54.046799
lfoot -18.419550 10.319175
ltoes -0.258821
260
root 14.594175 25.116749 -0.225489 12.169890 -11.152620 2.101005
lowerback -8.609010 1.461219 -4.089570
upperback -2.719965 2.137530 2.146845
thorax 1.868040 1.073611 4.649205
lowerneck -30.897301 -7.122210 -19.234350
upperneck 28.254002 -8.564910 19.857450
head 15.274351 -3.127155 9.059640
rclavicle 0.000000 0.000000
rhumerus -68.257355 13.315620 -128.078857
rradius 59.339096
rwrist -30.691502
rhand -46.174797 -35.488949
rfingers 10.687531
rthumb -6.110685 -80.400154
lclavicle 0.000000 0.000000
lhumerus -53.838600 -14.184135 134.320801
lradius 34.440300
lwrist -1.840155
lhand -15.334949 -33.487801
lfingers 10.687531
lthumb 23.652901 10.578794
rfemur -14.017845 -2.994615 23.521349
rtibia 93.788254
rfoot 5.567760 -14.936399
rtoes -23.243700
lfemur -46.124851 13.149675 -41.761200
ltibia 53.157600
lfoot -18.652351 10.655805
ltoes -2.599005
261
root 14.632410 25.159050 -0.019838 11.967165 -10.908540 2.094840
lowerback -8.745914 1.248828 -3.815925
upperback -2.481285 1.842705 2.146155
thorax 2.217975 0.917013 4.481460
lowerneck -31.073999 -7.035615 -18.850201
upperneck 28.259098 -8.470200 19.551300
head 15.271650 -3.082800 8.892870
rclavicle 0.000000 0.000000
rhumerus -68.226753 13.117229 -127.832855
rradius 59.915398
rwrist -30.802500
rhand -45.938400 -34.213352
rfingers 10.687531
rthumb -5.882445 -79.128906
lclavicle 0.000000 0.000000
lhumerus -52.411201 -15.228901 134.336853
lradius 34.374451
lwrist -1.346628
lhand -16.444351 -34.577251
lfingers 10.687531
lthumb 22.584450 9.571545
rfemur -15.739950 -3.170490 23.639851
rtibia 95.437202
rfoot 2.582685 -15.783151
rtoes -20.483398
lfemur -44.581200 12.803144 -41.827950
ltibia 52.422150
lfoot -19.115850 10.899840
ltoes -3.738030
262
root 14.668156 25.219351 0.181584 11.811630 -10.723260 1.400719
lowerback -8.650860 1.193465 -2.866320
upperback -2.358255 1.709970 2.254290
thorax 2.318295 0.848980 4.048680
lowerneck -31.018650 -6.929730 -18.302401
upperneck 28.393799 -8.429686 19.197300
head 15.273750 -3.064215 8.675895
rclavicle -0.000000 -0.000000
rhumerus -68.621399 13.374315 -127.983902
rradius 60.827248
rwrist -32.026501
rhand -46.467449 -34.303650
rfingers 10.687531
rthumb -6.393300 -79.209297
lclavicle -0.000000 -0.000000
lhumerus -50.991749 -15.797701 133.904999
lradius 34.515751
lwrist -1.936035
lhand -16.382401 -34.787399
lfingers 10.687531
lthumb 22.643999 9.356880
rfemur -17.442600 -3.079620 24.680849
rtibia 96.667648
rfoot 0.482307 -16.072948
rtoes -22.127550
lfemur -43.107452 12.674970 -41.084549
ltibia 51.704254
lfoot -19.517250 10.994790
ltoes -4.129755
263
root 14.693069 25.246651 0.359691 11.660521 -10.390020 0.560401
lowerback -8.202645 0.969354 -2.113620
upperback -2.398305 1.357195 2.666640
thorax 2.053965 0.677572 4.018425
lowerneck -31.252951 -6.826110 -18.086250
upperneck 29.069401 -8.287664 18.788549
head 15.516451 -3.020835 8.532465
rclavicle -0.000000 0.000000
rhumerus -68.765244 13.105004 -127.552345
rradius 61.207954
rwrist -31.925701
rhand -46.592850 -35.910149
rfingers 10.687531
rthumb -6.514319 -80.813248
lclavicle -0.000000 0.000000
lhumerus -49.972351 -16.640850 133.992004
lradius 34.931702
lwrist -1.542765
lhand -16.231199 -34.242298
lfingers 10.687531
lthumb 22.789650 9.891060
rfemur -19.257299 -3.011625 26.049751
rtibia 97.757248
rfoot -1.184142 -16.745550
rtoes -24.343948
lfemur -41.839798 12.647131 -40.160099
ltibia 50.919449
lfoot -19.625401 10.803585
ltoes -4.234665
